<?xml version="1.0" standalone="no"?>
<!DOCTYPE svg PUBLIC "-//W3C//DTD SVG 20010904//EN"
 "http://www.w3.org/TR/2001/REC-SVG-20010904/DTD/svg10.dtd">
<svg version="1.0" xmlns="http://www.w3.org/2000/svg"
 width="808.000000pt" height="808.000000pt" viewBox="0 0 808.000000 808.000000"
 preserveAspectRatio="xMidYMid meet">

<g transform="translate(0.000000,808.000000) scale(0.100000,-0.100000)"
fill="#000000" stroke="none">
<path d="M3970 5779 c-12 -23 -18 -44 -15 -47 7 -8 29 18 51 61 13 24 13 27
-1 27 -8 0 -24 -18 -35 -41z"/>
<path d="M3505 5656 c-10 -7 -27 -11 -37 -8 -17 4 -18 -6 -18 -182 0 -159 2
-186 15 -186 13 0 15 25 15 163 0 146 2 166 18 180 24 22 65 21 85 -1 14 -16
17 -44 17 -180 0 -137 2 -162 15 -162 13 0 15 22 15 138 0 75 -5 155 -10 177
-15 65 -70 94 -115 61z"/>
<path d="M4763 5660 c-25 -10 -43 -39 -43 -69 0 -29 17 -26 24 4 4 14 17 32
31 41 21 13 28 14 52 2 26 -12 28 -18 31 -74 l3 -62 -45 -6 c-60 -9 -93 -37
-101 -86 -8 -47 9 -106 35 -120 28 -15 76 -12 90 5 10 13 14 12 28 -2 16 -15
17 -6 20 133 2 84 -1 165 -7 185 -15 51 -64 71 -118 49z m97 -253 c0 -76 -18
-107 -60 -107 -42 0 -64 37 -57 97 6 55 25 73 79 73 l38 0 0 -63z"/>
<path d="M3243 5650 c-40 -16 -48 -47 -48 -176 0 -134 9 -165 55 -184 50 -21
106 9 112 59 4 36 -18 36 -25 1 -11 -53 -83 -63 -106 -14 -6 14 -11 49 -11 79
l0 55 75 0 75 0 0 38 c-1 51 -16 112 -32 128 -18 18 -68 26 -95 14z m72 -35
c20 -19 25 -34 25 -75 l0 -50 -60 0 -60 0 0 50 c0 41 5 56 25 75 13 14 29 25
35 25 6 0 22 -11 35 -25z"/>
<path d="M3690 5649 c0 -7 18 -90 40 -185 22 -95 40 -176 40 -179 0 -16 31 -1
35 18 66 261 85 381 59 354 -3 -3 -21 -76 -40 -163 -19 -87 -36 -159 -38 -161
-1 -2 -18 70 -37 159 -20 94 -39 163 -46 166 -7 2 -13 -2 -13 -9z"/>
<path d="M3940 5470 c0 -162 2 -190 15 -190 13 0 15 28 15 190 0 162 -2 190
-15 190 -13 0 -15 -28 -15 -190z"/>
<path d="M4108 5645 c-20 -12 -29 -27 -39 -69 -14 -66 -8 -210 12 -250 19 -40
61 -53 105 -33 42 21 49 44 49 177 0 117 -13 161 -51 179 -32 14 -43 14 -76
-4z m77 -30 c24 -23 25 -30 25 -145 0 -115 -1 -122 -25 -145 -13 -14 -29 -25
-35 -25 -6 0 -22 11 -35 25 -24 23 -25 30 -25 145 0 115 1 122 25 145 13 14
29 25 35 25 6 0 22 -11 35 -25z"/>
<path d="M4370 5653 c-46 -17 -72 -81 -50 -122 6 -12 36 -38 66 -57 70 -45 90
-74 78 -117 -13 -43 -53 -65 -89 -49 -14 7 -31 26 -37 42 -11 33 -28 40 -28
11 0 -28 37 -69 69 -76 34 -7 85 15 101 44 15 28 12 83 -4 107 -8 12 -40 36
-71 55 -58 35 -72 59 -61 104 15 59 101 55 112 -5 4 -17 13 -30 21 -30 23 0 8
50 -23 78 -24 21 -53 26 -84 15z"/>
<path d="M2865 5031 c-94 -43 -104 -77 -105 -366 0 -244 6 -287 46 -334 56
-67 189 -80 260 -26 66 50 69 63 72 332 4 266 -2 304 -49 358 -49 56 -147 71
-224 36z m131 -105 c18 -13 19 -30 22 -248 2 -142 -1 -245 -7 -261 -18 -48
-98 -49 -119 -2 -8 17 -12 99 -12 246 0 216 5 252 34 271 18 12 61 9 82 -6z"/>
<path d="M4226 5040 c-41 -13 -83 -56 -101 -105 -14 -35 -16 -82 -13 -291 3
-235 4 -251 25 -290 56 -106 249 -113 311 -12 23 37 39 112 26 121 -5 3 -30 8
-55 12 -46 7 -46 7 -53 -26 -8 -43 -33 -69 -65 -69 -65 1 -71 24 -71 274 0
258 7 285 72 286 32 0 68 -41 68 -77 0 -24 2 -25 48 -18 26 4 51 11 57 16 11
11 -9 93 -31 127 -33 50 -140 75 -218 52z"/>
<path d="M5552 5037 c-41 -13 -88 -65 -101 -114 -6 -21 -11 -137 -11 -263 0
-126 5 -242 11 -263 29 -106 164 -160 267 -108 92 47 101 79 101 371 0 245 -6
287 -46 332 -44 50 -143 70 -221 45z m122 -113 c25 -25 27 -47 24 -288 -3
-212 -4 -229 -22 -242 -11 -8 -32 -14 -46 -14 -14 0 -35 6 -46 14 -18 13 -19
30 -22 242 -2 126 -1 238 2 250 9 33 34 54 66 54 16 0 36 -7 44 -16z"/>
<path d="M2272 4663 l3 -378 130 0 c156 0 184 11 225 90 25 49 25 52 25 285 0
233 0 236 -25 285 -40 77 -69 89 -228 93 l-132 4 2 -379z m225 252 c12 -9 27
-32 33 -53 13 -48 13 -356 0 -404 -14 -47 -43 -68 -97 -68 l-43 0 0 270 0 270
43 0 c23 0 52 -7 64 -15z"/>
<path d="M3250 4660 l0 -380 55 0 55 0 2 248 3 247 50 -175 51 -175 39 0 39 0
51 175 50 175 3 -247 2 -248 55 0 55 0 0 380 0 381 -62 -3 -63 -3 -62 -214
c-34 -117 -63 -215 -65 -216 -2 -2 -32 95 -68 216 l-65 219 -62 0 -63 0 0
-380z"/>
<path d="M3880 4660 l0 -380 60 0 60 0 0 380 0 380 -60 0 -60 0 0 -380z"/>
<path d="M4552 4663 l3 -378 58 -3 57 -3 0 381 0 380 -60 0 -60 0 2 -377z"/>
<path d="M4792 4663 l3 -378 159 -3 c172 -3 176 -2 176 50 0 56 -4 58 -116 58
l-104 0 0 325 0 325 -60 0 -60 0 2 -377z"/>
<path d="M5212 4663 l3 -378 55 0 55 0 3 378 2 377 -60 0 -60 0 2 -377z"/>
<path d="M2870 3701 c-6 -12 -10 -115 -10 -265 0 -269 2 -276 60 -276 55 0 60
22 60 242 l0 198 710 0 710 0 0 -720 0 -720 -258 0 c-191 0 -262 -3 -274 -12
-27 -22 -30 -53 -7 -81 l20 -27 392 0 c216 0 397 4 403 8 13 8 34 46 34 61 0
6 -9 20 -20 31 -16 16 -33 20 -95 20 l-75 0 0 580 0 580 248 0 247 0 106 -88
c58 -48 146 -121 197 -162 l91 -75 1 -356 c0 -196 -3 -384 -6 -418 l-7 -61
-42 0 c-68 0 -99 -56 -55 -100 29 -29 166 -29 201 -1 l24 19 3 469 c1 257 0
478 -3 490 -3 12 -91 92 -207 189 -112 92 -213 177 -226 188 -22 20 -38 21
-295 26 l-272 5 -3 120 c-2 93 -6 123 -19 137 -15 17 -60 18 -819 18 -784 0
-804 0 -814 -19z"/>
<path d="M4664 3146 c-18 -14 -19 -31 -22 -285 l-3 -271 26 -25 25 -26 271 3
c254 3 271 4 285 22 19 26 20 383 1 406 -7 9 -56 55 -109 103 l-97 87 -179 0
c-138 0 -183 -3 -198 -14z m404 -172 l73 -66 -3 -122 -3 -121 -182 -3 -183 -2
0 190 0 190 113 0 112 0 73 -66z"/>
<path d="M2822 3094 c-26 -18 -30 -65 -6 -88 13 -14 65 -16 409 -16 432 0 425
-1 425 60 0 59 -5 60 -425 60 -328 0 -384 -2 -403 -16z"/>
<path d="M2698 2818 c-30 -24 -31 -56 -4 -83 l25 -25 390 0 c341 0 392 2 405
16 22 21 20 60 -4 84 -19 19 -33 20 -408 20 -295 0 -392 -3 -404 -12z"/>
<path d="M2567 2532 c-23 -25 -21 -58 3 -82 19 -19 33 -20 405 -20 l386 0 24
25 c29 28 31 42 9 73 l-15 22 -398 0 c-373 0 -399 -1 -414 -18z"/>
<path d="M2876 2364 c-13 -12 -16 -41 -16 -154 0 -174 -4 -170 152 -170 95 0
110 2 128 20 25 25 26 62 2 83 -14 13 -38 17 -90 17 l-72 0 0 88 c0 102 -14
132 -60 132 -16 0 -36 -7 -44 -16z"/>
<path d="M3438 2226 c-92 -25 -162 -90 -193 -175 -44 -125 9 -256 133 -329 41
-23 58 -27 127 -27 69 0 86 4 126 27 91 54 141 140 141 243 0 34 -8 79 -16 99
-52 126 -193 197 -318 162z m147 -136 c40 -25 65 -74 65 -130 0 -86 -58 -144
-146 -145 -150 -1 -208 188 -84 273 43 29 119 30 165 2z"/>
<path d="M4920 2227 c-157 -44 -240 -189 -196 -342 23 -77 98 -154 175 -180
145 -48 299 33 346 181 39 124 -21 262 -138 318 -65 31 -129 39 -187 23z m147
-138 c65 -40 86 -120 51 -188 -33 -64 -68 -86 -133 -86 -117 0 -187 112 -133
214 40 78 141 106 215 60z"/>
</g>
</svg>
